HIERARCHY
ROOT Hips
{
   OFFSET 0.00000 0.00000 0.00000
   CHANNELS 6 Xposition Yposition Zposition Zrotation Xrotation Yrotation
   JOINT RightUpLeg
   {
      OFFSET -9.840380 -9.533777 0.111817
      CHANNELS 3 Zrotation Xrotation Yrotation
      JOINT RightLeg
      {
         OFFSET 0.000000 -48.864969 1.509970
         CHANNELS 3 Zrotation Xrotation Yrotation
         JOINT RightFoot
         {
            OFFSET 0.278904 -46.301641 -1.606649
            CHANNELS 3 Zrotation Xrotation Yrotation
            JOINT RightToes
            {
               OFFSET 0.044000 -4.856599 9.349010
               CHANNELS 3 Zrotation Xrotation Yrotation
               End Site
               {
                  OFFSET -0.088000 -0.151193 10.757769
               }
            }
         }
      }
   }
   JOINT Spine
   {
      OFFSET 0.000000 13.079551 0.000000
      CHANNELS 3 Zrotation Xrotation Yrotation
      JOINT Spine1
      {
         OFFSET 0.000000 28.223142 0.140429
         CHANNELS 3 Zrotation Xrotation Yrotation
         JOINT HEad
         {
            OFFSET 0.000000 9.607577 0.012475
            CHANNELS 3 Zrotation Xrotation Yrotation
            End Site
            {
               OFFSET -0.319000 14.051621 2.765345
            }
         }
         JOINT LeftShoulder1
         {
            OFFSET 9.889000 -0.398477 -0.242000
            CHANNELS 3 Zrotation Xrotation Yrotation
            JOINT LeftArm
            {
               OFFSET 11.310971 -0.003718 0.354335
               CHANNELS 3 Zrotation Xrotation Yrotation
               JOINT LeftForeArm
               {
                  OFFSET 36.043591 0.109058 -1.566774
                  CHANNELS 3 Zrotation Xrotation Yrotation
                  JOINT LeftHand
                  {
                     OFFSET 30.320732 0.093898 1.124376
                     CHANNELS 3 Zrotation Xrotation Yrotation
                     End Site
                     {
                        OFFSET 18.418731 -0.660000 1.653201
                     }
                  }
               }
            }
         }
         JOINT RightShoulder
         {
            OFFSET -9.889000 -0.398477 -0.242000
            CHANNELS 3 Zrotation Xrotation Yrotation
            JOINT RightArm
            {
               OFFSET -11.310971 -0.003718 0.354335
               CHANNELS 3 Zrotation Xrotation Yrotation
               JOINT RightForeArm
               {
                  OFFSET -36.186809 0.109058 -1.566774
                  CHANNELS 3 Zrotation Xrotation Yrotation
                  JOINT RightHand
                  {
                     OFFSET -30.241313 0.093898 1.124376
                     CHANNELS 3 Zrotation Xrotation Yrotation
                     End Site
                     {
                        OFFSET -18.294322 -0.660000 1.653201
                     }
                  }
               }
            }
         }
      }
   }
   JOINT LeftUpLeg
   {
      OFFSET 9.840380 -9.533777 0.111817
      CHANNELS 3 Zrotation Xrotation Yrotation
      JOINT LeftLeg
      {
         OFFSET 0.000000 -48.864969 1.509970
         CHANNELS 3 Zrotation Xrotation Yrotation
         JOINT LeftFoot
         {
            OFFSET -0.278904 -46.301641 -1.606649
            CHANNELS 3 Zrotation Xrotation Yrotation
            JOINT LeftToes
            {
               OFFSET -0.044000 -4.856599 9.349010
               CHANNELS 3 Zrotation Xrotation Yrotation
               End Site
               {
                  OFFSET 0.088000 -0.052193 10.757769
               }
            }
         }
      }
   }
}
MOTION
Frames: 10
Frame Time: 0.016667
-953.758454 100.358742 358.756861 26.486640 -46.965036 44.103430 -6.054907 31.809936 5.836933 15.535629 32.092959 10.259868 -51.091017 23.745761 3.313512 9.346667 -25.047666 -41.956022 26.572883 11.146630 97.011745 17.201237 -12.439920 -136.264924 -32.284634 46.398961 47.714930 44.680509 57.707005 -43.941882 127.185239 -84.767012 468.277004 -0.051187 -9.941091 -48.236879 -32.490428 -16.456921 -80.863047 -57.724224 64.427658 80.190949 94.336756 103.913159 221.482763 5.507858 197.047952 66.412088 -4.619867 -18.865131 39.285875 0.071439 17.040644 25.573186 45.773380 29.002079 -35.249787 -62.148042 15.360421 19.967682 14.087739 -20.782056 -38.420545
-954.343705 99.737299 357.868571 30.731565 -51.028610 46.307941 -9.657682 39.364757 3.612476 16.116260 35.116175 15.401510 -49.913814 25.943516 4.324104 10.245303 -26.161416 -43.639861 28.448643 14.865688 95.566750 21.726408 -13.782009 -136.312708 -28.862016 44.105895 45.873135 43.135592 53.913466 -41.494868 475.344884 -84.483095 463.792138 -0.237917 -10.727396 -50.595542 -37.711107 -16.688048 -85.781896 -64.070617 64.506308 89.078685 88.598468 95.244748 226.402931 5.096871 187.548129 66.480717 -3.983319 -19.591020 40.562059 -2.223550 22.121354 25.731023 47.763943 27.490979 -33.342562 -60.248320 16.375881 19.299353 14.512605 -21.703309 -36.984228
-955.206666 99.058836 357.064700 33.506429 -51.597025 49.473857 -14.217303 46.450368 0.864223 15.832781 35.029028 24.409221 -60.438315 30.767741 6.786036 11.050645 -26.086559 -43.886199 24.593054 19.888252 95.147062 24.548651 -15.735586 -135.908347 -24.066013 39.712123 42.260330 42.052734 50.351280 -40.782554 472.727446 -81.201257 467.921179 1.157747 -8.894304 -51.844677 -40.020804 -18.684061 -88.388713 -71.610469 59.681107 97.586942 81.297488 85.740860 232.240912 3.667467 176.812711 65.671149 -3.744191 -18.411740 41.567718 -5.376140 25.852314 24.264507 47.523671 24.006483 -29.329918 -57.736258 16.272070 18.006032 14.716754 -22.395929 -34.891082
-956.463533 98.531207 356.147532 37.185964 -51.539689 55.290412 -21.017254 51.792635 1.024807 14.886894 39.158233 39.228628 -51.781440 27.680776 9.272720 9.827710 -29.093163 -43.014028 25.345283 26.256279 94.400850 26.367059 -17.759305 -136.380067 -18.257072 34.928747 37.301398 41.917643 45.493920 -40.515340 485.007471 -78.831919 482.255287 3.122678 -8.248614 -52.697980 -41.810740 -30.560783 -75.123072 -78.393749 53.774448 104.338352 77.542113 75.921992 240.270427 1.431205 165.014638 65.139610 -3.884939 -18.175948 40.556120 -8.241742 30.889186 20.952761 46.515187 17.388618 -23.082956 -53.972575 15.044499 16.778167 14.767627 -23.325299 -32.224730
-958.147111 97.858618 355.079760 42.354386 -49.198187 60.725340 -31.492394 57.836628 -0.596367 9.462668 40.771855 55.053319 -51.853157 26.174794 9.758360 9.336496 -30.418138 -42.178891 24.282583 31.052437 94.366454 29.133892 -18.760477 -136.251072 -12.200160 29.667278 31.357719 43.866552 41.806369 -42.118764 487.516391 -78.123362 488.782817 1.947794 -9.446304 -53.436306 -44.533359 -22.310097 -88.817868 -85.042842 46.691743 111.251590 75.955419 67.236027 248.602821 -1.107134 154.612479 65.021926 -4.565905 -16.695964 37.987695 -9.840381 33.423329 19.853857 42.353884 16.437805 -14.999389 -49.763624 13.030163 15.138549 14.066184 -25.011495 -28.835559
-960.227876 97.046479 353.987078 46.438402 -47.912780 63.146130 -40.832018 61.441206 1.139357 1.101909 41.668074 68.324424 -46.711698 23.955411 9.154049 8.700897 -31.485171 -41.439424 22.233079 36.505876 95.961030 33.118068 -19.595881 -134.379928 -6.840446 24.302698 26.188610 46.697085 39.270996 -42.484989 494.761691 -75.905374 498.881935 2.207673 -8.628882 -53.721565 -48.359334 -25.123910 -82.730154 -91.806403 38.208560 118.150292 76.010908 58.637270 257.102172 5.824302 143.381052 61.421589 -6.101068 -12.328731 37.717479 -10.668333 34.737386 18.433513 38.381439 16.516897 -10.021037 -46.251230 13.882587 12.784588 13.755316 -25.130995 -25.721666
-962.534699 96.180333 352.968974 47.812417 -46.632731 61.837316 -47.697984 61.051291 5.708252 -5.018703 41.345898 76.417113 -43.626686 23.232945 8.095732 8.179105 -31.097148 -40.376595 17.968078 43.080493 100.322802 34.835525 -18.526108 -130.214278 -2.185358 18.683228 21.663589 52.034837 37.220252 -44.821764 502.536140 -72.810691 507.628784 2.846854 -6.801650 -54.017237 -50.380046 -21.748456 -87.586774 -100.275394 28.996305 123.816904 76.138953 54.340551 266.907592 2.196848 131.602896 64.960638 -7.865338 -10.600450 37.850511 -10.661468 32.605568 17.214850 35.150650 20.349201 -7.291654 -42.756537 14.271342 8.876973 14.043911 -24.490791 -23.484297
-964.904389 95.196360 351.961169 45.791996 -45.996922 54.950607 -52.601554 57.269435 10.587193 -6.785462 39.823397 77.473859 -42.352033 25.338523 6.201568 9.116088 -28.173958 -40.862901 11.623254 49.826373 108.888740 34.088436 -14.003285 -123.000847 1.249322 13.071899 17.920586 57.847898 34.134086 -48.226279 509.354035 -68.230414 512.653126 3.972922 -6.151679 -54.910507 -52.591453 -27.997890 -66.699584 -108.723026 19.800536 128.566085 78.286467 51.040378 280.368665 -0.972516 118.894332 68.075594 -9.704880 -11.312448 38.828116 -10.271002 27.169833 16.164857 32.986013 26.379724 -5.484725 -38.871798 14.341154 5.104317 14.648147 -23.264943 -21.299996
-967.423768 94.162816 350.864710 43.519698 -45.405636 49.031370 -55.071405 54.250564 17.535775 -3.714341 37.529192 73.065279 -39.676432 25.050383 5.032242 8.919969 -25.537695 -39.584409 5.610380 52.823512 117.151992 35.425985 -11.521221 -114.787982 2.674961 7.151423 15.049852 65.001053 31.797953 -53.555578 513.850103 -63.041792 515.243134 5.323848 -5.354425 -55.233899 -52.706401 -26.905596 -81.930298 -114.791847 10.413391 134.344152 81.910880 49.166014 294.751076 -2.669174 105.729204 71.397607 -11.351842 -12.892332 40.800012 -8.333693 21.412648 16.563929 30.405550 32.460809 -3.933525 -35.088034 13.606445 1.951869 15.063178 -22.801982 -18.714058
-969.904618 93.254775 349.775004 41.026911 -44.018933 43.551629 -54.719002 51.750871 24.473481 0.228161 34.813095 65.360580 -41.590285 25.312102 4.465960 8.792046 -22.458044 -38.075576 -0.762338 54.766458 124.609999 36.067575 -9.225257 -105.327405 2.007314 1.131599 12.989028 72.608435 29.198482 -61.117441 518.243062 -57.267103 515.400447 6.995830 -5.649365 -53.658711 -54.054336 -31.591240 -68.971496 -119.321397 2.627831 139.220224 84.933279 52.022621 310.595093 -3.920642 91.693234 73.959160 -13.312071 -15.615559 44.474066 -5.961729 14.450066 18.138850 27.977411 38.588311 -2.643679 -31.151619 13.021236 -0.486686 15.494299 -22.450839 -16.009378
